<svg xmlns="http://www.w3.org/2000/svg" viewBox="0 0 311.71 88.09"><defs><style>.cls-1{fill:#fefefe;}.cls-2{fill:#01007a;}.cls-3{fill:#010079;}.cls-4{fill:#09d91d;}.cls-5{fill:#020079;}.cls-6{fill:#020179;}.cls-7{fill:#d1d2e5;}.cls-8{fill:#abcab0;}.cls-9{fill:#d7d9e9;}.cls-10{fill:#cfd1e4;}.cls-11{fill:#d4d6e7;}.cls-12{fill:#dcddeb;}.cls-13{fill:#090879;}.cls-14{fill:#080778;}.cls-15{fill:#030279;}.cls-16{fill:#d6d6e7;}.cls-17{fill:#dadbea;}.cls-18{fill:#b7d3c6;}.cls-19{fill:#b0b1c2;}.cls-20{fill:#06047a;}.cls-21{fill:#09077b;}.cls-22{fill:#070579;}.cls-23{fill:#0e0d7b;}.cls-24{fill:#aacebc;}.cls-25{fill:#0b0979;}.cls-26{fill:#0a097b;}.cls-27{fill:#d0d1e4;}.cls-28{fill:#0a0979;}.cls-29{fill:#0a0779;}.cls-30{fill:#0b0a79;}.cls-31{fill:#09087a;}.cls-32{fill:#0f0d7d;}.cls-33{fill:#0a0a78;}.cls-34{fill:#0b0a7b;}.cls-35{fill:#090777;}.cls-36{fill:#070678;}.cls-37{fill:#cecee1;}.cls-38{fill:#0c0c77;}.cls-39{fill:#0b0878;}.cls-40{fill:#c0bed6;}.cls-41{fill:#0b0978;}.cls-42{fill:#d5d6e7;}.cls-43{fill:#0a0a7b;}.cls-44{fill:#0c0a7b;}.cls-45{fill:#100e7c;}.cls-46{fill:#d2d2e3;}.cls-47{fill:#213757;}.cls-48{fill:#131280;}.cls-49{fill:#0c0c7c;}.cls-50{fill:#13137e;}.cls-51{fill:#0e0e77;}.cls-52{fill:#060651;}.cls-53{fill:#d1d2e4;}.cls-54{fill:#dde0e9;}.cls-55{fill:#15157d;}.cls-56{fill:#13127d;}.cls-57{fill:#bce6c2;}.cls-58{fill:#d6d7e7;}.cls-59{fill:#b1ccc3;}.cls-60{fill:#14157d;}.cls-61{fill:#292a86;}.cls-62{fill:#223454;}.cls-63{fill:#5fb683;}.cls-64{fill:#262689;}.cls-65{fill:#2a2888;}.cls-66{fill:#bfe8c4;}.cls-67{fill:#535496;}.cls-68{fill:#d3dbe4;}.cls-69{fill:#c5c6e0;}.cls-70{fill:#c0c0de;}.cls-71{fill:#d2d3e6;}.cls-72{fill:#fafafc;}.cls-73{fill:#c1c4db;}.cls-74{fill:#c8c9e1;}.cls-75{fill:#b5b5d7;}.cls-76{fill:#0c1365;}.cls-77{fill:#345453;}.cls-78{fill:#172155;}.cls-79{fill:#e6e6f1;}.cls-80{fill:#eeeef5;}.cls-81{fill:#e9e8f1;}.cls-82{fill:#dadbec;}.cls-83{fill:#cecee5;}.cls-84{fill:#c3c4de;}.cls-85{fill:#efeff5;}.cls-86{fill:#c8c9e3;}.cls-87{fill:#dddeed;}.cls-88{fill:#ebecf2;}</style></defs><g id="Capa_2" data-name="Capa 2"><g id="Capa_1-2" data-name="Capa 1"><path class="cls-1" d="M155.66,88.06q-77,0-154,0C.35,88.09,0,87.85,0,86.48Q.08,44,0,1.49C0,.36.13,0,1.42,0q154.45.06,308.9,0c1.07,0,1.39.19,1.39,1.34q-.06,42.68,0,85.34c0,1.32-.4,1.4-1.51,1.4Q232.94,88,155.66,88.06Z"/><path class="cls-2" d="M181,59.93a3.39,3.39,0,0,1-1.14-2.84q0-16.06,0-32.12c0-2.46.57-3,3.07-3,2.85,0,5.7.08,8.55,0a3.81,3.81,0,0,1,3.86,2.19c2.73,4.89,5.57,9.72,8.38,14.57.16.28.34.55.77,1.24V27.17c0-5.18,0-5.17,5.17-5.18,1.37,0,2.73-.1,4.09-.09,1.9,0,2.79.89,2.78,2.67l-.09,31.94c0,3-.45,3.49-3.47,3.5-2.85,0-5.7,0-8.54.05a3.17,3.17,0,0,1-3.15-1.77c-2.7-4.78-5.53-9.48-8.31-14.21-.38-.19-.85-.69-.84.29,0,1.59,0,3.18,0,4.77,0,2.65,0,5.3,0,8,0,2.28-.93,3.27-3.16,3.41s-4.25.07-6.38,0A2,2,0,0,1,181,59.93Z"/><path class="cls-3" d="M219.43,59.68l-.57-1.09c.06-11.71.08-23.41,0-35.12.28-1.52,1.45-1.48,2.6-1.48h22c1,0,2,0,3,0A2.59,2.59,0,0,1,249,23.46a6,6,0,0,1,.27,3,22.18,22.18,0,0,0-.09,4.95,2.37,2.37,0,0,1-2,2.69,8.7,8.7,0,0,1-2.64.24c-3.68,0-7.35,0-11,0-2.38,0-3,.64-2.89,2.94.15,2.88.15,5.76.16,8.64,0,2.14.1,2.23,2.18,2.23h12.8a4.36,4.36,0,0,1,1.76.13,2.51,2.51,0,0,1,1.49,1.81c.59,2.74.26,5.52.2,8.28,0,1.12-.93,1.73-2,2a7.56,7.56,0,0,1-2.12.2c-7.52,0-15,0-22.58,0A4.72,4.72,0,0,1,219.43,59.68Z"/><path class="cls-2" d="M134.66,60.06a3.05,3.05,0,0,1-1.36-2.89q0-16.14,0-32.26c0-2.39.55-3,2.91-3s4.5.05,6.75.07a2,2,0,0,1,2.25,2.17c0,.59.07,1.18.07,1.77q-.06,9.91-.13,19.84c0,2.25.25,2.51,2.56,2.52,4.39,0,8.78,0,13.16,0,1.2,0,2.27.15,2.71,1.47.78,2.67.41,5.4.41,8.11a2.61,2.61,0,0,1-2.26,2.59,9.32,9.32,0,0,1-2.3.17H137.39A4.07,4.07,0,0,1,134.66,60.06Z"/><path class="cls-4" d="M64.87,41.57c2.87-2.82,5.76-5.6,8.57-8.47,1-1,1.77-1.07,2.78,0,2.21,2.3,4.51,4.52,6.78,6.76.46.46,1,.89.7,1.66a3.9,3.9,0,0,1-1.33,1.84l-29.15,29c-2,2-2.54,2-4.5,0-2.14-2.19-4.52-4.17-6.3-6.69l-.33-.36c-.71-.86,0-1.41.48-2C43.65,62.15,45,61.12,46,59.81c6-5.64,11.72-11.59,17.6-17.37A8.05,8.05,0,0,1,64.87,41.57Z"/><path class="cls-4" d="M20.76,44.49l-.48-.4c-.32-.3-.65-.59-.58-1.09a3.7,3.7,0,0,1,1.24-2.09q8.58-8.58,17.19-17.13a4.39,4.39,0,0,1,1.26-1A6.59,6.59,0,0,0,42,20.55a3.43,3.43,0,0,1,1.58-1.29c2.65-2.68,5.33-5.34,8-8,.85-.87,1.49-1.13,2.47-.11,2.28,2.39,4.65,4.69,7,7a1.56,1.56,0,0,1,.62,1.7,21.59,21.59,0,0,1-3.68,3.72A59.58,59.58,0,0,0,52.65,29c-.65.62-1.29,1.25-1.91,1.91Q41,40.57,31.23,50.3c-2.16,2.15-2.81,2.15-5,.06C24.49,48.34,22.23,46.78,20.76,44.49Z"/><path class="cls-3" d="M39.38,23.11,22,40.56A11.13,11.13,0,0,0,19.87,43c-.67.8-1.72,1.16-2.39,2-1.7,2.13-3.79,3.89-5.53,6-1.27,1.54-2.33,1.61-3.72.21A42.7,42.7,0,0,1,2.9,45.44C.77,43,.77,43,3.07,40.72L32.39,11.5C34,9.93,34,10,35.54,11.63c2.4,2.53,4.84,5,7.27,7.52C42.17,20.9,40.76,22,39.38,23.11Z"/><path class="cls-4" d="M31.6,55l-.23-.27c-.38-.26-.68-.56-.52-1.07a5,5,0,0,1,1.24-1.48c7-7.09,14.22-14,21.16-21.21a1.66,1.66,0,0,1,.6-.35c2.86-2.8,5.77-5.55,8.55-8.42,1.09-1.12,1.81-1.15,2.88,0,2.18,2.3,4.49,4.51,6.74,6.75.46.46,1,.88.68,1.65-.57,1.32-1.9,1.89-2.84,2.84l-6.48,6.48c-1.22,2-3.1,3.33-4.66,5a39.21,39.21,0,0,1-3.39,3.31c-2.26,2.31-4.59,4.55-6.85,6.85-1.23,1.26-2.73,2.26-3.74,3.73a35.58,35.58,0,0,1-2.85,2.91c-1.56,1.45-2.38,1.43-4,0-.47-.45-.93-.91-1.39-1.37C35,58.45,32.9,57.06,31.6,55Z"/><path class="cls-3" d="M93.74,59.94a3.44,3.44,0,0,1-1.39-3.25c0-7,0-13.95,0-20.92,0-1.17.21-1.66,1.61-1.56,2.76.21,5.55.16,8.33.19.79,0,1.12.21,1.12,1.11,0,3.65.23,7.31,0,11-.16,2.47.27,2.89,2.76,2.89h23.3c.58,0,1.2-.18,1.67.36.63,2.62.36,5.28.26,7.92-.06,1.81-1.25,2.7-3.19,2.92a85.88,85.88,0,0,1-9.76.34H97.81A6.93,6.93,0,0,1,93.74,59.94Z"/><path class="cls-2" d="M277.84,59.66c-2-2.91-2.88-6.3-4.28-9.47-1.77-4-.74-3.33-5.05-3.34-5.1,0-10.2,0-15.31.12a3.16,3.16,0,0,1-3.46-2.36c-.56-1.61-1.32-3.15-1.92-4.74s-.22-2.28,1.49-2.64A13.09,13.09,0,0,1,252,37c9,0,17.92,0,26.88,0a2.74,2.74,0,0,1,3,2.1c1.93,5.45,4.42,10.66,6.67,16,.32.92.79,1.83.39,2.84a.54.54,0,0,0,0,.33c-.25.73-.5,1.59-1.37,1.69C284.27,60.28,281,60.67,277.84,59.66Z"/><path class="cls-2" d="M167.07,60,166,59a1.25,1.25,0,0,1-.17-.68c0-7.68,0-15.35,0-23,0-1.3.6-1.91,1.76-2,2.91-.13,5.81-.11,8.71,0,1.17,0,1.57.83,1.66,1.91A106.13,106.13,0,0,1,178,46.33c0,3.42.17,6.84.11,10.26-.05,3.15-.83,4-4,4C171.74,60.5,169.34,61.1,167.07,60Z"/><path class="cls-2" d="M105.46,32.73c-.48-.32-.4-.82-.4-1.28,0-2.78,0-5.56,0-8.34,0-1.08.37-1.44,1.45-1.44,7.17,0,14.35,0,21.52,0a3.24,3.24,0,0,1,3.16,2.14c.59,2.5.29,5.05.23,7.58a1.82,1.82,0,0,1-2.28,1.7c-2.21-.41-4.34.06-6.51.09-4.91.09-9.83,0-14.75,0A4.4,4.4,0,0,1,105.46,32.73Z"/><path class="cls-3" d="M270.18,36.19c-3,0-6.05,0-9.07,0-1.08,0-1.38-.26-.93-1.33,1.59-3.73,3.13-7.49,4.68-11.25A2.23,2.23,0,0,1,267,22c1.12-.05,2.24-.18,3.36-.34,3-.41,4.8,1,5.85,3.7q1.86,4.77,3.92,9.46c.54,1.24.07,1.37-1,1.36C276.11,36.16,273.15,36.18,270.18,36.19Z"/><path class="cls-3" d="M20.76,44.49A48.3,48.3,0,0,1,26.43,50a3,3,0,0,0,1.07,1.36c1.11.91,1.85.83,2.85-.32.53-.62,1.12-1.19,1.7-1.77.35-.35.75-.62,1.22-.23s.29.94-.06,1.37A13.24,13.24,0,0,0,32,51.9a17.59,17.59,0,0,1-1.18,1.55c-1.93,2.11-4.05,4-6,6.12-1,1-2,2-3,3a1.32,1.32,0,0,1-2,.08c-2.67-2.62-5.44-5.16-7.89-8-.33-.91.28-1.39.83-1.94C15.39,50,18.07,47.22,20.76,44.49Z"/><path class="cls-3" d="M31.6,55a44,44,0,0,1,5.15,5c1,1.38,2,2.93,4.1,2.64.45-.06.71.34.77.8-.07,1-.89,1.49-1.46,2.16-2.19,2.23-4.52,4.32-6.51,6.75-1.59,1.93-2.7,2-4.38.21-2.27-2.39-4.95-4.4-6.78-7.2-.41-1,.41-1.37.91-1.89C26.11,60.6,29.09,58,31.6,55Z"/><path class="cls-5" d="M252.18,59.73a2.52,2.52,0,0,1-.78-3.15c1-2.69,2.06-5.36,3.08-8,.34-.9,1-1,1.85-.95,3.6,0,7.19,0,10.79,0,.69.76.35,1.57.07,2.33-1.08,2.94-2.39,5.78-3.65,8.64a2.25,2.25,0,0,1-1.87,1.46,58.23,58.23,0,0,1-8.86,0A1.61,1.61,0,0,1,252.18,59.73Z"/><path class="cls-2" d="M165.93,23.46A2.08,2.08,0,0,1,168.25,22q3.54,0,7.1,0a2.08,2.08,0,0,1,2.38,1.84c.83,1.88.35,3.85.25,5.74-.2,3.67-.32,3.66-4.07,3.66-1.9,0-3.79,0-5.68,0s-2.4-.6-2.39-2.5C165.86,28.29,165.72,25.87,165.93,23.46Z"/><path class="cls-2" d="M93,32.76a.94.94,0,0,1-.62-.79c0-2.64,0-5.29.1-7.93A2,2,0,0,1,94.09,22a26.8,26.8,0,0,1,9.24.07c.68,3.09.25,6.22.31,9.32a1.61,1.61,0,0,1-1.52,1.7C99.07,33.2,96,33.65,93,32.76Z"/><path class="cls-6" d="M105.12,47.2V34.49a21.33,21.33,0,0,1,4.34,3.28,6.13,6.13,0,0,0,5,1.74c1.11-.1,2.25,0,3.37-.06s1.69.3,1.85,1.37c-.12,1.73-.41,2-2.12,2a2,2,0,0,1-.35,0,9.94,9.94,0,0,0-9.16,3C107.35,46.52,106.58,47.73,105.12,47.2Z"/><path class="cls-7" d="M165.93,23.46c0,2.41.12,4.83,0,7.25,0,1.5.56,2,2,1.94q4-.09,8,0c1.08,0,1.56-.17,1.54-1.42,0-2.47.14-4.94.23-7.41.78.31.74,1,.74,1.64,0,11.22,0,22.43,0,33.65,0,1.72-1.11,2.18-2.36,2.26-2.3.14-4.62.09-6.93,0A2.4,2.4,0,0,1,167.07,60c2.67,0,5.34,0,8-.06,1.89,0,2.51-.55,2.5-2.4,0-7.5-.09-15-.09-22.51,0-1.06-.4-1.27-1.35-1.25-2.79.05-5.58,0-8.36,0-1.26,0-1.8.41-1.8,1.76.05,7.8,0,15.6,0,23.4-.55-.46-.37-1.09-.37-1.65V24.78C165.63,24.32,165.5,23.82,165.93,23.46Z"/><path class="cls-8" d="M42.42,65.7l6.88,6.64c1.61,1.56,1.69,1.57,3.26,0L82.37,42.67c.41-.41.88-.77,1.32-1.16a1.47,1.47,0,0,1-.34,2Q67.87,58.92,52.43,74.34c-.92.92-1.66,1-2.63,0-2.15-2.36-4.59-4.44-6.62-6.92A2.3,2.3,0,0,1,42.42,65.7Z"/><path class="cls-9" d="M134.66,60.06Q147.32,60,160,60c3.22,0,3.5-.3,3.52-3.54,0-2.23,0-4.47.07-6.71a4.76,4.76,0,0,1,1,3.3c-.06,1.82,0,3.66,0,5.49a2.66,2.66,0,0,1-2.85,2.91q-12.45,0-24.89,0C135.87,61.42,134.89,61.28,134.66,60.06Z"/><path class="cls-10" d="M93.74,59.94c1.36.09,2.72.26,4.07.26q14.67,0,29.34,0c3.07,0,3.86-.82,3.89-3.9q0-3.28.08-6.55a3.63,3.63,0,0,1,.69,2.3c0,2.25,0,4.49,0,6.74,0,1.83-.78,2.64-2.57,2.65q-16.36,0-32.71,0C95.44,61.4,94.22,61.27,93.74,59.94Z"/><path class="cls-11" d="M219.43,59.68a7,7,0,0,0,2.09.29h24.36c2.5,0,3.05-.53,3.1-3,.05-2.3.05-4.6.08-6.9.76.44.64,1.19.64,1.89,0,2.13,0,4.26,0,6.39,0,2.5-.58,3.07-3.17,3.07H228.37c-1.84,0-3.69,0-5.52,0A3.48,3.48,0,0,1,219.43,59.68Z"/><path class="cls-12" d="M247.57,48.27c-5.21,0-10.42,0-15.63.09-1.09,0-1.47-.5-1.47-1.51,0-3.9,0-7.79,0-11.69,0-1.4.86-1.46,1.88-1.46,4.27,0,8.53.07,12.8,0,3.45,0,3.82-.43,3.84-3.92,0-2.12,0-4.24.06-6.37,1,1.07.72,2.3.49,3.52a12.11,12.11,0,0,0,0,4.57c.5,2.52-.26,3.58-2.85,3.61-4.33,0-8.65,0-13,0-2.46,0-2.74.47-2.58,2.92.17,2.63.13,5.27.06,7.91,0,1.44.42,2,1.93,2,4.2-.08,8.41,0,12.62,0C246.33,48,247,47.72,247.57,48.27Z"/><path class="cls-7" d="M181,59.93l7.6,0c2.6,0,3.12-.58,3.09-3.29q0-6.7-.05-13.42c0-.32-.16-.69.25-1a3.17,3.17,0,0,1,1.1,1.87c-.51.55-.29,1.23-.3,1.86,0,4.07,0,8.15,0,12.23,0,2.57-.68,3.23-3.27,3.26h-5.87A2.38,2.38,0,0,1,181,59.93Z"/><path class="cls-13" d="M96.17,72.85c-3.14,0-3.16,0-3.34-3.06,0-.7.13-1.42.09-2.12-.08-1.47.64-2,2-2,1,0,2,0,3,0,.57,0,1,.2,1,.78s-.48.71-1,.71-1.19,0-1.78,0c-.44,0-.89.12-.86.65s.51.39.84.4.83,0,1.24,0c.64,0,1.26.07,1.23.89s-.72.77-1.31.77-1,0-1.42,0c-.31,0-.58.12-.64.48a.58.58,0,0,0,.58.72c.7.07,1.42.05,2.13.07.55,0,1.1,0,1.09.81s-.5.85-1.09.84Z"/><path class="cls-14" d="M234.48,65.7h1.78a.68.68,0,0,1,.76.76c0,.51-.29.72-.79.72s-1.31,0-2,0c-.42,0-.9.06-.87.62s.49.4.83.42.94,0,1.42,0,1.1.18,1.14.82-.48.86-1.08.85-1.07,0-1.6,0c-.36,0-.74,0-.76.53s.31.71.79.71l2,0c.57,0,1.12.06,1.07.83a.82.82,0,0,1-.94.82,17,17,0,0,1-3.72-.1c-2.39-.58-1.32-2.67-1.43-4.13-.08-1.14-.4-2.79,1.63-2.91.59,0,1.19,0,1.78,0Z"/><path class="cls-15" d="M85.51,37.32l-.69-.38c-.23-1.2-1.15-1.7-2.16-2.11,0-1.23-1-3,1.49-2.9.32,0,.43-.34.52-.62.65-1.9,1.12-2.07,3-1.11.12.82.21,1.49,1.35,1.69s1.54,2.19.5,3a7.94,7.94,0,0,0-1.93,1.95A1.45,1.45,0,0,1,85.51,37.32Z"/><path class="cls-14" d="M281.42,68.13c1.2.41,2.41.87,2.4,2.43a2.21,2.21,0,0,1-1.75,2.19c-1.46.41-2.95.49-4.15-.7-.35-.34-.86-.8-.41-1.36a1.3,1.3,0,0,1,1.77-.22c.35.19.57.61.91.82s.94.31,1.18-.29-.18-.76-.58-.91a18.94,18.94,0,0,1-2-.67,1.81,1.81,0,0,1-.93-2.78c.87-1.54,4.62-1.48,5.48.06.33.58.28,1-.49,1.12a9.55,9.55,0,0,1-1.41-.1c-.23,0-.43-.16-.65-.2C280.83,67.89,281.23,67.9,281.42,68.13Z"/><path class="cls-16" d="M252.18,59.73c2.89,0,5.78-.07,8.66,0a2.24,2.24,0,0,0,2.42-1.59c1.13-2.89,2.37-5.74,3.55-8.62a2.31,2.31,0,0,0,.31-1.85c1.19-.07,1.7.38,1.2,1.59-1.43,3.43-2.84,6.86-4.29,10.27a2.56,2.56,0,0,1-2.54,1.6c-2.37,0-4.74,0-7.12,0C253.41,61.06,252.45,60.92,252.18,59.73Z"/><path class="cls-17" d="M105.46,32.73l23-.1c2.4,0,2.6-.25,2.57-2.64,0-2.06.06-4.12.09-6.17a2.71,2.71,0,0,1,.66,2.11c0,1.77,0,3.53,0,5.3,0,2.5-1.24,3.33-3.55,2.26a4,4,0,0,0-3.86,0,3.22,3.22,0,0,1-1.72.26c-5.08,0-10.16,0-15.24,0C106.54,33.78,105.78,33.71,105.46,32.73Z"/><path class="cls-18" d="M64.87,41.57C58.94,47.64,53.13,53.84,46.79,59.5a4.77,4.77,0,0,0-.48.52c-.38.3-.65.15-.84-.24a1.28,1.28,0,0,1,.29-1c2-2.41,3.79-5,6.28-6.89A51.4,51.4,0,0,0,57.54,47c1.08-1,2.1-2.18,3.23-3.18a11.89,11.89,0,0,0,2.74-3.72C64.3,40.28,63.84,41.62,64.87,41.57Z"/><path class="cls-19" d="M22.49,65.32c2.55,2.19,4.89,4.59,7.2,7,1.47,1.54,1.73,1.55,3.25,0l7-7c.36.22.81.39.67,1-2.46,2.93-5.36,5.45-8,8.19a1.32,1.32,0,0,1-2.14,0c-2.38-2.38-4.76-4.74-7.13-7.12A2.77,2.77,0,0,1,22.49,65.32Z"/><path class="cls-20" d="M172.77,67.81c0-.53,0-.88,0-1.23-.06-.72.33-.9,1-.89s1.18.09,1.17.93c0,1.06,0,2.12,0,3.18,0,3,0,3-2.92,3-1,0-2.05.16-2.56-1a3.3,3.3,0,0,1,.24-3.51C170.43,67.3,171.49,67.34,172.77,67.81Z"/><path class="cls-21" d="M219.79,69.32c0,3.83,0,3.77-3.87,3.35-1.88-.21-1.93-1.46-1.86-2.8s.62-2.5,2.24-2.36c.91.07,1.49.16,1.39-1.05-.06-.7.57-.8,1.14-.8s1,.35,1,1C219.78,67.54,219.79,68.43,219.79,69.32Z"/><path class="cls-22" d="M244.19,71.14a10.08,10.08,0,0,1,0-1.23c.1-1.07-.48-2.51,1.54-2.46,2.58.08,4.34,1.22,4.32,3a2.2,2.2,0,0,1-2.51,2.46c-.93-.07-1.31.11-1.25,1.07,0,.65-.36.95-1,.94a1,1,0,0,1-1.11-1.08V71.14Z"/><path class="cls-23" d="M162.62,70.22c0-.53,0-1.07,0-1.59s.15-1.19,1.07-.91a3.76,3.76,0,0,0,1.42,0c2.85-.34,3-.17,3.09,2.67a.53.53,0,0,1,0,.18c-.29.75.73,2.1-.85,2.24-1.8.15-1-1.33-1.17-2.15-.14-.52.13-1.39-.71-1.37s-.63.83-.68,1.39c0,.35,0,.71,0,1.06,0,.62-.18,1.14-1,1.12s-1.08-.35-1.1-1.05c0-.53,0-1.07,0-1.6Z"/><path class="cls-24" d="M30.65,53.29c.37-.48.45-1.18,1.07-1.47,6.26-7,13.16-13.31,19.7-20,.72-.49,1-1.46,2-1.67l.43.45a9.07,9.07,0,0,1-.91,1.29Q42.29,42.57,31.6,53.23a5.93,5.93,0,0,1-.56.43A.46.46,0,0,1,30.65,53.29Z"/><path class="cls-25" d="M132.12,70.17c0-.53,0-1.07,0-1.59,0-.28.14-.78.24-.78a20.64,20.64,0,0,1,4.29-.18c1.06.14.94,1.34,1,2.2a8.3,8.3,0,0,1,0,1.41c0,.72.24,1.61-1,1.63s-1.08-.94-1.13-1.72c0-.35,0-.7,0-1.06s0-.75-.5-.79-.71.33-.74.78,0,.94,0,1.41c0,.79-.09,1.4-1.12,1.38s-1-.74-1-1.46C132.11,71,132.12,70.58,132.12,70.17Z"/><path class="cls-26" d="M201.61,69.31c-.66-.22-.93-.58-.3-1.11a4,4,0,0,1,3.86-.55c1.25.33,1.32,1.37,1.38,2.39,0,.64,0,1.29,0,1.94s-.33,1.13-1,.9a5.4,5.4,0,0,0-2.74.07c-.86.1-1.66,0-2-1s.17-1.66,1.09-2c.34-.35.86-.29,1.34-.64A1.87,1.87,0,0,1,201.61,69.31Z"/><path class="cls-27" d="M105.12,47.2c1.8-.58,3-2,4.33-3.18a6.13,6.13,0,0,1,4.81-1.7c1,.1,2.14-.1,3.18,0a1.74,1.74,0,0,0,2.24-1.55,1.92,1.92,0,0,1,.3,2.4c-.32.81-1.18.56-1.71.43-4.46-1.08-7.7,1.12-10.72,3.87C106.49,48.49,105.77,48.54,105.12,47.2Z"/><path class="cls-28" d="M257.53,70.05c0-.53,0-1.06,0-1.59,0-.36,0-.87.45-.77,1.26.29,2.46-.23,3.69-.13A1.3,1.3,0,0,1,263,68.79a30.12,30.12,0,0,1,.15,3.16c0,.76-.54.92-1.22.91s-.8-.44-.87-1c-.1-.86.45-2.42-.59-2.43-1.41,0-.59,1.56-.73,2.42s-.4,1-1.13,1-1.08-.3-1.05-1C257.55,71.22,257.53,70.64,257.53,70.05Z"/><path class="cls-29" d="M181.48,70.22a6.67,6.67,0,0,1,0,1.61c0,.92-.5,1.37-1.37.94a2,2,0,0,0-1.64.06c-1.48.43-2.39-.25-2.5-1.83,0-.76,0-1.53,0-2.3s.25-1.13,1-1.16,1.17.42,1.13,1.22c0,.41,0,.82,0,1.23s-.1,1.22.65,1.2.64-.71.77-1.22c.23-.87-.69-2.54,1.13-2.36C182.21,67.77,181.28,69.32,181.48,70.22Z"/><path class="cls-30" d="M154.31,71c.39,1.34,0,2.16-1.91,1.75-.78-.16-1.61.35-2.46.19a1.48,1.48,0,0,1-1.38-1.38A1.44,1.44,0,0,1,149.75,70c.56-.16,1.16-.24,1.74-.35.33-.06.77,0,.64-.57s-.44-.47-.81-.31l-.33.14c-.7.23-1.78.84-2,0s1-1.24,1.84-1.38C153.35,67.08,154.29,68,154.31,71Z"/><path class="cls-31" d="M265,69.3c-1-.26-.94-.75-.21-1.26a4,4,0,0,1,3.88-.28c1.3.46,1,1.58,1,2.54a10,10,0,0,0,.09,1.23c.22,1.16-.24,1.55-1.36,1.28a4.67,4.67,0,0,0-2.1.13,1.75,1.75,0,0,1-2.28-1.13c-.38-1.13.4-1.59,1.3-1.91.35-.41,1-.3,1.39-.72C266.13,69.24,265.59,69.67,265,69.3Z"/><path class="cls-32" d="M108.65,71.41a3.08,3.08,0,0,1-3.82,1.41,2.58,2.58,0,0,1-1.78-3.07c.32-1.67,1.74-2.53,3.62-2.26a2.45,2.45,0,0,1,2.4,2.56.68.68,0,0,1-.4.71c-.49.36-1.07.21-1.6.28C107.62,71.08,108.22,70.87,108.65,71.41Z"/><path class="cls-23" d="M226.19,71.39c-.27,1.59-1.6,1.48-2.7,1.57a2.51,2.51,0,0,1-2.65-1.65,2.57,2.57,0,0,1,.65-3.06,3.2,3.2,0,0,1,3.77-.45,2.18,2.18,0,0,1,1.3,2.88,2.65,2.65,0,0,1-1.65.35C225.37,71,225.85,71,226.19,71.39Z"/><path class="cls-33" d="M251.48,69.29c-.53-.23-.82-.58-.3-1a3.92,3.92,0,0,1,3.84-.62c1.2.31,1.49,1.2,1.46,2.3,0,.71,0,1.42,0,2.12s-.3,1-.85.82a6.73,6.73,0,0,0-2.93.08c-.79.06-1.58,0-1.89-.92a1.49,1.49,0,0,1,1-2.1c.34-.39.94-.3,1.37-.68A1.73,1.73,0,0,1,251.48,69.29Z"/><path class="cls-34" d="M83,50.09c-1.11-.77-.63-1.81-.35-2.71s1.12-.3,1.69-.35a16.17,16.17,0,0,1,5.42.22c.75,2.54.2,3.34-2.47,3.34C85.87,50.59,84.37,50.93,83,50.09Z"/><path class="cls-35" d="M131.16,70.26A2.6,2.6,0,0,1,128.21,73a2.76,2.76,0,0,1-3-2.78,2.82,2.82,0,0,1,3-2.73A2.57,2.57,0,0,1,131.16,70.26Z"/><path class="cls-36" d="M284.91,68.92c0-.71,0-1.42,0-2.13s.14-1.14.95-1.14,1.29.21,1.27,1.09c0,.53,0,1.07,0,1.59-.18,1.72.37,2.76,2.31,2.66.63,0,1.23.11,1.23.93s-.68,1-1.37.93h-.36C284.91,72.9,284.91,72.9,284.91,68.92Z"/><path class="cls-37" d="M2.9,45.44a61.63,61.63,0,0,1,5.36,5.11c1.8,1.72,1.81,1.7,3.59-.16s3.76-3.73,5.65-5.59c.09.07.13.15.1.23s-.05.12-.08.12a29.18,29.18,0,0,1-5.86,7.4c-.85.82-1.83,1.22-2.59.24C7.42,50.7,5.33,49,3.67,47,3.32,46.55,2.83,46.11,2.9,45.44Z"/><path class="cls-38" d="M147.88,71.14c-1,1.67-2.33,2.3-4.14,1.69a2.75,2.75,0,0,1,.15-5.24c1.32-.27,2.61-.3,3.55.91.15.18.46.46.09.72a1.36,1.36,0,0,1-1.79.09c-.9-.74-1.4-.25-1.72.58a1.39,1.39,0,0,0,.32,1.33c.37.49.84.3,1.25,0A2.29,2.29,0,0,1,147.88,71.14Z"/><path class="cls-39" d="M113,67.47a2.28,2.28,0,0,1,1.58.41c.42.29,1.1.64.82,1.19s-1,.66-1.69.33c-1.23-.59-2-.14-1.84,1,.11.82.49,1.32,1.43.9a6.4,6.4,0,0,1,1.32-.44,1,1,0,0,1,.82.2c.26.34-.11.62-.32.88a3.12,3.12,0,0,1-4,.69,2.59,2.59,0,0,1-1.32-3.15C110.16,67.91,111.4,67.46,113,67.47Z"/><path class="cls-40" d="M11.85,54.61a103,103,0,0,1,7.51,7.26c1,1,1.65,1.11,2.59,0a36,36,0,0,1,2.65-2.59,1.33,1.33,0,0,1,.76.73,16.55,16.55,0,0,1-3.13,3.55c-.62.56-1.34,1.08-2.15.27a92.17,92.17,0,0,1-8-8.4C11.9,55.24,11.92,54.89,11.85,54.61Z"/><path class="cls-41" d="M241.32,71.45a3.82,3.82,0,0,0-2-.82,1.51,1.51,0,0,1-1.26-1.5,1.45,1.45,0,0,1,1.27-1.47,4,4,0,0,1,2.77,0c.33.15.88.27.74.8s-.64.43-1.05.42a1.34,1.34,0,0,1-.35,0c-.45-.07-1.17-.73-1.29,0s.84.51,1.34.59c1,.17,1.91.41,1.83,1.68a1.69,1.69,0,0,1-1.71,1.68c-1.23.12-2.59.42-3.4-.81-.52-.8.4-.71.84-.85C239.77,71,240.31,72.12,241.32,71.45Z"/><path class="cls-30" d="M186.34,69.54c.94.26,1.64.79,1.49,1.85s-1.06,1.49-2.06,1.56a3.12,3.12,0,0,1-3.18-1.33c1-1.16,2.16.54,3.53-.39l-2.26-.57a1.5,1.5,0,0,1-1.26-1.48,1.45,1.45,0,0,1,1.18-1.53,3.16,3.16,0,0,1,3.31.54c.32.29.43.56-.05.8-.21.07-.44.05-.65.12s-.39,0-.48.19A1,1,0,0,1,186.34,69.54Z"/><path class="cls-42" d="M93,32.76c2.6,0,5.2-.1,7.81-.12,2.43,0,2.53-.12,2.53-2.46,0-2.71,0-5.43,0-8.14a3.21,3.21,0,0,1,.7,2.3c0,2.66,0,5.32,0,8,0,1-.28,1.48-1.4,1.46-2.67-.07-5.34-.06-8,0A1.52,1.52,0,0,1,93,32.76Z"/><path class="cls-43" d="M192.37,68.35c0,.14,0,.37-.15.46-1.09,1-1.3,1.86-.08,2.94.46.41.26.94-.45,1.18a1.86,1.86,0,0,1-1.69-.15c-1.13-.71-1.71-4.92-.72-5.82.65-.6,1.7-2.53,2.08.24C191.44,67.74,192.36,67.64,192.37,68.35Z"/><path class="cls-44" d="M118.77,73.1a2.13,2.13,0,0,1-.54-.14c-2-1-1-3.18-1.85-4.69-.44-.75,1-1.58,1.83-2.08.48-.28.79-.28,1,.44a6.65,6.65,0,0,1,0,3.45c-.15.62.32,1,.66,1.34s.54.67.31,1.1S119.41,73.11,118.77,73.1Z"/><path class="cls-45" d="M159.08,69.1c0-.77-.1-1.53-.12-2.3s.26-1.13,1-1.15,1.33.14,1.33,1c0,1.71,0,3.43,0,5.14,0,.89-.55,1.06-1.3,1.05S159,72.44,159,71.76c0-.89,0-1.77,0-2.66Z"/><path class="cls-46" d="M277.84,59.66c2.76,0,5.51,0,8.26,0a2.81,2.81,0,0,0,2.76-1.46c.2,2.64,0,2.85-2.79,2.86-1.82,0-3.65,0-5.47,0A2.65,2.65,0,0,1,277.84,59.66Z"/><path class="cls-47" d="M63.51,40.1a3.16,3.16,0,0,1-1.1,2.65c-1.59,1.47-3.13,3-4.69,4.5-.68.42-1.26,1-1.92,1.44a.58.58,0,0,1-.9-.1c-.17-.3.19-.49.3-.73a86.69,86.69,0,0,1,8.18-8A1.48,1.48,0,0,0,63.51,40.1Z"/><path class="cls-48" d="M102.08,69.12V72c0,.67-.34.93-1,.91s-1-.18-1-.89c0-1.77,0-3.54,0-5.31,0-.79.42-1,1.12-1a.9.9,0,0,1,1,1c0,.82,0,1.65,0,2.48Z"/><path class="cls-49" d="M207.64,69.15V66.66c0-.77.43-1,1.14-1s1,.29,1,1c0,1.71,0,3.42,0,5.14,0,.72-.27,1.08-1,1.09s-1.11-.46-1.08-1.23,0-1.66,0-2.48Z"/><path class="cls-50" d="M193.27,70a13.2,13.2,0,0,1-.11-1.4c0-.76.36-1.27,1.22-1.06a2,2,0,0,0,1.68,0,.68.68,0,0,1,1,.3.76.76,0,0,1-.43,1.15c-1.33.38-1.43,1.34-1.37,2.48,0,.68.08,1.46-1,1.4s-1.15-.6-1.06-1.42c0-.46,0-.94,0-1.41Z"/><path class="cls-51" d="M121.12,70.23c0-.53,0-1.06,0-1.59,0-.84.25-1.25,1.14-1a2.73,2.73,0,0,0,1.74-.06.74.74,0,0,1,1,.44.71.71,0,0,1-.49,1c-1.37.27-1.32,1.27-1.3,2.29,0,.79.07,1.55-1.11,1.56s-1-.87-1-1.59v-1Z"/><path class="cls-52" d="M218.85,23.47a7.3,7.3,0,0,1,.22,1.19q0,16.37,0,32.74a7.25,7.25,0,0,1-.21,1.19,10.13,10.13,0,0,1-.14-1.22q0-16.33,0-32.68C218.72,24.28,218.81,23.88,218.85,23.47Z"/><path class="cls-53" d="M85.51,37.32c1.13-.13,2.3-.22,2.21-1.83,0-.54.34-.71.81-.66,1,.1,1.28-.42,1.29-1.36S89.57,32,88.56,32c-1.5,0-.6-1.19-.84-1.82.45.61.7,1.22,1.63,1.57,1.12.42,1.49,1.76,1.52,3.06s-.73,1.4-1.71,1.47c-.54,0-.76.48-.8,1-.06.83-.58,1.05-1.32,1.06S85.61,38.27,85.51,37.32Z"/><path class="cls-54" d="M25.36,60c-.5,0-.72-.27-.76-.73l6-6,.39.37.33,1.05a22.72,22.72,0,0,0-4.07,3.51C26.67,58.83,26,59.42,25.36,60Z"/><path class="cls-55" d="M141,70.36c0,.53,0,1.07,0,1.6,0,.82-.59.89-1.23.9s-.92-.36-.91-1c0-1.06,0-2.13,0-3.19,0-.68.19-1.17,1-1.14s1.14.3,1.15,1c0,.59,0,1.18,0,1.77Z"/><path class="cls-56" d="M197.7,70c.41-.68-.84-2.33,1-2.38s.93,1.64,1.13,2.58a10.46,10.46,0,0,1,0,1.59c0,.89-.45,1.09-1.22,1.11s-.93-.51-.91-1.16S197.7,70.64,197.7,70Z"/><path class="cls-57" d="M52.41,28.83a89.66,89.66,0,0,1,9.17-9c.59.83.13,1.38-.48,1.94-1.94,1.76-4.46,2.8-6.11,4.94a6.13,6.13,0,0,0-1.59,3.24C52.71,29.89,52.29,29.6,52.41,28.83Z"/><path class="cls-58" d="M83,50.09c1.34,0,2.67-.1,4-.07,2.76.07,2.83,0,2.75-2.77a3.17,3.17,0,0,1,1,1.81c.25,1-.07,1.92-1.14,2a47.53,47.53,0,0,1-5.47,0C83.63,51.07,83.28,50.57,83,50.09Z"/><path class="cls-59" d="M40.61,66.36c-.21-.33-.72-.45-.67-1l1.46-1.74c1-1.73,2.19-3.32,4.21-4a.72.72,0,0,0,.7.39c-.86,1.48-2.29,2.44-3.41,3.69-.44.48-.9.9-.81,1.63Z"/><path class="cls-60" d="M273,72.31a2.33,2.33,0,0,1-.51,1.79,1,1,0,0,1-1.08.44c-.7-.25-.19-.62,0-1a.83.83,0,0,0-.26-.94c-.43-.48-.68-1-.16-1.56a1.41,1.41,0,0,1,1.48-.26C273.36,71.07,272.84,71.81,273,72.31Z"/><path class="cls-61" d="M259.69,66.82c-.54.27-1.05.55-1.09-.26a.8.8,0,0,1,1-.84c.79.18,1.81-.22,2.33.55.22.33-.34.82-.88.79A12.49,12.49,0,0,1,259.69,66.82Z"/><path class="cls-62" d="M52.41,28.83l1,1.11a.75.75,0,0,0,0,.21l-1.76,1.74a1.46,1.46,0,0,0-1.09-1.34A4.76,4.76,0,0,1,52.41,28.83Z"/><path class="cls-63" d="M39.38,23.11l3.43-4,.72.11C42.22,20.63,41.44,22.56,39.38,23.11Z"/><path class="cls-64" d="M198.73,65.65c.52,0,1.15,0,1.07.81-.06.62-.55.67-1.06.67s-1.08-.06-1-.83S198.26,65.68,198.73,65.65Z"/><path class="cls-65" d="M141,66.38c-.09.73-.6.74-1.15.76s-1-.18-1-.87.57-.62,1-.62S141,65.65,141,66.38Z"/><path class="cls-66" d="M69.86,33.41a15.91,15.91,0,0,1,2.84-2.84.94.94,0,0,1-.3,1.48C71.57,32.53,70.71,33,69.86,33.41Z"/><path class="cls-67" d="M128.1,67.13c-.38-.08-.58-.28-.49-.62A1.29,1.29,0,0,1,129,65.38c.3,0,.75.1.61.41A2.29,2.29,0,0,1,128.1,67.13Z"/><path class="cls-68" d="M17.52,45.15l0-.35c.71-.73,1.17-1.76,2.37-1.85.14.38.28.76.41,1.14A5.06,5.06,0,0,0,17.52,45.15Z"/><path class="cls-69" d="M251.48,69.29l2-.64c.38-.12.72,0,.84.37s-.23.56-.59.63a4.93,4.93,0,0,1-1.9.28Z"/><path class="cls-70" d="M265,69.3c.6-.22,1.2-.45,1.81-.66.38-.13.73,0,.84.37s-.23.57-.59.65a3.75,3.75,0,0,1-1.72.24Z"/><path class="cls-71" d="M201.61,69.31l1.84-.62c.47-.16.87,0,1,.43s-.41.48-.72.54c-.57.11-1.16.17-1.74.25Z"/><path class="cls-72" d="M108.65,71.41c-1-.61-2.13.59-3.31-.25,1.17-.72,2.28-.34,3.33-.4Z"/><path class="cls-73" d="M82.66,34.83c1.81-.4,2.28.56,2.16,2.11C84.14,36.2,83.17,35.75,82.66,34.83Z"/><path class="cls-1" d="M226.19,71.39c-1-.52-2.16.57-3.13-.71h3.5Z"/><path class="cls-74" d="M281.42,68.13a1.48,1.48,0,0,1-.35.05c-.56-.06-1.22,0-1.38-.74,0-.17.28-.57.49-.62.69-.15,1.06.28,1.25.9Z"/><path class="cls-75" d="M186.34,69.54a1.59,1.59,0,0,1-1.9-.88c1-.31,1.72.57,2.6.33Z"/><path class="cls-46" d="M288.9,57.89l-.39-2.84A2.17,2.17,0,0,1,288.9,57.89Z"/><path class="cls-76" d="M50.57,30.55c.51.14,1-.6,1.48-.05s-.51.85-.39,1.39q-9,9.11-18,18.19c-.61.61-1,1.45-1.94,1.74.06-.81.77-1.15,1.2-1.69.21-.25.63-.48.22-.86s-.66-.08-.91.17a10.46,10.46,0,0,0-1.35,1.4c-.54.81-1.16,1.85-2.13,1.52s-2.24-.91-2.32-2.37a4.19,4.19,0,0,1,.69.53c1.13,1.38,2.12,1.27,3.36,0C36.71,44.23,43,38,49.26,31.73,49.68,31.32,50.13,30.94,50.57,30.55Z"/><path class="cls-77" d="M55.2,47.86c0,.28-.37,1,.42.53s1.23-1.07,2.1-1.14a37.33,37.33,0,0,1-5.79,5.3C49.66,54.4,48,56.88,46,59c-.44-.36-1-.11-1.51-.42,1-1.74,2.74-2.89,4.11-4.33,1.86-2,3.94-3.74,5.72-5.79A3.5,3.5,0,0,1,55.2,47.86Z"/><path class="cls-78" d="M44.49,58.55C45,58.52,46,57.1,46,59l-.39.66-4.21,4c-.09-.82-.71-.72-1.3-.81A4,4,0,0,1,36.75,60a.51.51,0,0,1,.17.07c3.24,2.77,3.24,2.77,6.26-.28C43.6,59.33,44.05,59,44.49,58.55Z"/><path class="cls-79" d="M171.81,69c.65.08,1,.38,1,1s.15,1.36-.78,1.47c-.66.07-.94-.36-1-.94A1.28,1.28,0,0,1,171.81,69Z"/><path class="cls-80" d="M217.81,70.27c-.09.59-.18,1.22-1,1.15s-.75-.74-.78-1.31.2-1.07.86-1.08S217.72,69.69,217.81,70.27Z"/><path class="cls-81" d="M248,70.31c0,.64-.16,1.21-1,1.1s-.87-.69-.83-1.3.28-1.2,1-1.12S248,69.71,248,70.31Z"/><path class="cls-82" d="M204.47,71.09a1,1,0,0,1-1.06.74c-.37,0-.73-.17-.59-.65s.69-.6,1.15-.64S204.5,70.72,204.47,71.09Z"/><path class="cls-83" d="M152.38,71a1.06,1.06,0,0,1-1,.85c-.39.05-.72,0-.75-.5,0-.66.47-.73.93-.81S152.3,70.51,152.38,71Z"/><path class="cls-84" d="M267.8,71a1.15,1.15,0,0,1-1.14.87.55.55,0,0,1-.61-.65c.06-.63.59-.64,1-.72S267.78,70.53,267.8,71Z"/><path class="cls-85" d="M106.12,68.76c.37.07.73.25.69.64s-.52.54-.94.48-.63-.14-.6-.47S105.67,68.76,106.12,68.76Z"/><path class="cls-86" d="M223.78,69.91c-.4,0-.92.08-1-.48s.39-.69.84-.72.88.13,1,.6S224.2,69.91,223.78,69.91Z"/><path class="cls-87" d="M253.52,71.82c-.4,0-.74-.06-.73-.51,0-.61.51-.69,1-.76s.62,0,.63.38C254.41,71.5,254,71.73,253.52,71.82Z"/><path class="cls-88" d="M129.28,70.26c0,.77-.26,1.34-1.1,1.28s-1-.71-.94-1.39.27-1.3,1.11-1.25S129.24,69.65,129.28,70.26Z"/></g></g></svg>